<svg xmlns="http://www.w3.org/2000/svg" width="34.985" height="65.035" viewBox="0 0 34.985 65.035"><g transform="translate(-7.515 -3.965)"><path d="M0,0H28L25.924,20.764H1.78Z" transform="translate(11 21)" fill="#4347ff"/><path d="M47.2,5.3h-3.68L40.276.273a.6.6,0,0,0-.5-.273H20.859a.6.6,0,0,0-.5.273L17.114,5.3h-3.68a.6.6,0,0,0-.6.6v5.552a.6.6,0,0,0,.6.6H16.44l.449,4.173a1.606,1.606,0,0,0-1.463,1.765l1.851,18.934a1.617,1.617,0,0,0,1.615,1.465h.388L19.8,43.2a.6.6,0,0,0,.594.533H40.238a.6.6,0,0,0,.594-.534l.52-4.819h.388a1.617,1.617,0,0,0,1.615-1.465l1.851-18.934a1.606,1.606,0,0,0-1.463-1.765l.45-4.173H47.2a.6.6,0,0,0,.6-.6V5.893A.6.6,0,0,0,47.2,5.3ZM21.185,1.2H39.448L42.1,5.3H18.538ZM39.7,42.536H20.932l-.449-4.157H40.15Zm4.314-24.672L42.166,36.8a.426.426,0,0,1-.425.385H18.892a.426.426,0,0,1-.425-.385L16.616,17.865a.432.432,0,0,1,.425-.468H43.592a.432.432,0,0,1,.425.468ZM42.543,16.2H18.09l-.449-4.157H42.992ZM46.6,10.847H14.032V6.491H46.6Z" transform="translate(-5.321 3.965)" fill="#4347ff"/><path d="M56.118,238.5l4.6,7.1,4.6-7.1-4.6,2.367Zm2.468,2.3,1.835.945.295.152v2.193l-2.13-3.289Z" transform="translate(-35.684 -206.28)" fill="#fff"/><path d="M65.315,7.575,60.716,0l-4.6,7.575,4.6,1.894Zm-4.6-.947-3.344.459,3.344-5.509Z" transform="translate(-35.684 23.171)" fill="#fff"/><text transform="translate(25.5 65)" fill="#b0b3c2" font-size="13" font-family="SourceSansPro-SemiBold, Source Sans Pro" font-weight="600"><tspan x="-16.627" y="0">VENTI</tspan></text><path d="M.892.842,2.035-.441,3,6H-.332L-1.6,5.379Z" transform="translate(23 25)" fill="#fff"/><g transform="translate(23 34)" fill="#fff"><path d="M 1.777363657951355 2.73373556137085 L 0.8939567804336548 1.319230079650879 L 1.883632063865662 1.75212574005127 L 1.777363657951355 2.73373556137085 Z" stroke="none"/><path d="M -0.3860502243041992 0.2135915756225586 L 2.420229911804199 1.441101312637329 L 2.118899822235107 4.224501132965088 L -0.3860502243041992 0.2135915756225586 Z" stroke="none" fill="#fff"/></g></g></svg>